<?xml version="1.0" standalone="no"?>
<!DOCTYPE svg PUBLIC "-//W3C//DTD SVG 20010904//EN"
 "http://www.w3.org/TR/2001/REC-SVG-20010904/DTD/svg10.dtd">
<svg version="1.0" xmlns="http://www.w3.org/2000/svg"
 width="829.000000pt" height="829.000000pt" viewBox="0 0 829.000000 829.000000"
 preserveAspectRatio="xMidYMid meet">
<metadata>
Created by potrace 1.14, written by Peter Selinger 2001-2017
</metadata>
<g transform="translate(0.000000,829.000000) scale(0.100000,-0.100000)"
fill="#000000" stroke="none">
<path d="M4438 8255 c-2 -2 -39 -6 -84 -9 -84 -7 -138 -13 -189 -21 -31 -5
-44 -7 -130 -25 -27 -6 -59 -12 -70 -14 -331 -64 -783 -286 -1105 -543 -97
-77 -305 -281 -371 -363 -24 -30 -47 -57 -50 -60 -4 -3 -41 -57 -84 -120 -81
-121 -128 -209 -215 -405 -122 -274 -288 -574 -468 -850 -79 -119 -278 -403
-291 -415 -3 -3 -33 -41 -65 -85 -33 -44 -62 -82 -65 -85 -4 -3 -26 -30 -51
-60 -25 -30 -49 -60 -55 -66 -5 -6 -30 -35 -55 -65 -25 -29 -58 -67 -73 -84
-65 -69 -86 -156 -48 -194 75 -75 234 -85 419 -26 72 23 212 85 272 120 14 8
75 40 137 71 94 47 115 54 132 44 33 -17 26 -54 -33 -169 -195 -384 -345 -914
-344 -1217 1 -260 103 -356 403 -380 72 -6 362 -6 390 0 11 2 61 7 110 10 50
4 101 9 115 11 14 2 48 6 75 10 67 8 115 15 145 20 14 2 45 7 70 10 25 3 74
11 110 16 36 6 79 12 97 14 17 2 50 7 72 10 46 7 81 -7 81 -33 0 -9 -25 -55
-56 -102 -102 -156 -192 -380 -228 -566 -21 -114 -16 -245 14 -312 46 -105
148 -164 289 -166 l74 -1 28 70 c125 315 409 1187 733 2251 l86 281 6 154 c3
85 7 170 8 189 14 146 18 188 21 210 2 14 7 45 10 70 37 260 122 428 269 529
219 151 595 101 792 -105 97 -101 136 -217 130 -384 -5 -118 -38 -235 -108
-378 -52 -105 -227 -394 -296 -486 -21 -28 -43 -69 -50 -91 -70 -231 -465
-1514 -565 -1832 l-44 -142 112 58 c132 69 246 131 260 141 47 34 488 252 615
305 36 15 83 35 105 45 64 29 197 69 242 74 72 7 99 -30 72 -101 -19 -50 -101
-166 -240 -338 -131 -163 -120 -274 36 -340 47 -19 151 -22 216 -5 135 36 536
291 723 460 88 79 250 243 312 315 65 75 224 280 224 289 0 3 20 34 45 69 25
36 45 70 45 76 0 6 5 11 10 11 6 0 10 5 10 10 0 6 11 27 23 48 123 194 264
532 343 820 25 90 30 110 40 162 3 14 9 44 15 68 5 23 12 59 15 78 3 20 8 46
12 58 3 11 7 239 9 506 2 436 0 496 -16 595 -79 464 -254 864 -544 1249 -24
31 -34 43 -106 126 -109 124 -247 253 -356 331 -328 235 -616 382 -980 500
-89 29 -338 93 -405 103 -138 22 -246 37 -310 42 -73 6 -417 13 -422 9z"/>
<path d="M1269 4392 c-72 -47 -221 -205 -289 -307 -19 -27 -36 -52 -40 -55 -3
-3 -32 -44 -63 -91 -117 -177 -155 -312 -112 -402 67 -142 279 -31 382 201 14
31 49 107 79 168 55 113 91 239 101 349 3 33 9 69 13 80 10 27 -8 75 -28 75
-10 0 -29 -8 -43 -18z"/>
<path d="M2317 2944 c-31 -7 -76 -22 -100 -33 -104 -47 -134 -59 -157 -66 -50
-15 -164 -78 -224 -123 -53 -40 -144 -136 -170 -179 -23 -41 -2 -93 49 -117
41 -20 156 -35 231 -31 100 6 331 66 441 116 24 10 45 19 48 19 13 0 122 74
153 104 73 68 107 168 78 224 -21 40 -69 79 -114 92 -51 14 -165 11 -235 -6z"/>
<path d="M4260 2455 c-74 -43 -320 -148 -468 -199 -160 -55 -420 -114 -444
-100 -6 4 -74 -128 -98 -191 -35 -89 -120 -372 -134 -445 -7 -40 -91 -305
-173 -550 -197 -585 -225 -669 -249 -758 -29 -107 -27 -151 7 -188 l22 -24
361 0 c335 0 364 2 401 20 47 22 75 46 97 80 27 42 367 1095 551 1705 78 257
154 547 169 639 4 25 -11 29 -42 11z"/>
<path d="M4992 2205 c-88 -20 -219 -110 -263 -181 -47 -76 -14 -165 75 -207
82 -39 156 -22 204 46 12 18 34 46 49 62 60 64 71 93 79 204 6 92 -17 104
-144 76z"/>
</g>
</svg>
